<svg width="240" height="240" viewBox="0 0 240 240" fill="none" xmlns="http://www.w3.org/2000/svg">
<g filter="url(#filter0_i_4_995)">
<path d="M122.121 0.87868C120.95 -0.292893 119.05 -0.292893 117.879 0.87868L98.7868 19.9706C97.6152 21.1421 97.6152 23.0416 98.7868 24.2132C99.9584 25.3848 101.858 25.3848 103.029 24.2132L120 7.24264L136.971 24.2132C138.142 25.3848 140.042 25.3848 141.213 24.2132C142.385 23.0416 142.385 21.1421 141.213 19.9706L122.121 0.87868ZM117.879 239.121C119.05 240.293 120.95 240.293 122.121 239.121L141.213 220.029C142.385 218.858 142.385 216.958 141.213 215.787C140.042 214.615 138.142 214.615 136.971 215.787L120 232.757L103.029 215.787C101.858 214.615 99.9584 214.615 98.7868 215.787C97.6152 216.958 97.6152 218.858 98.7868 220.029L117.879 239.121ZM117 3L117 237L123 237L123 3L117 3Z" fill="white"/>
<path d="M239.121 122.121C240.293 120.95 240.293 119.05 239.121 117.879L220.029 98.7868C218.858 97.6152 216.958 97.6152 215.787 98.7868C214.615 99.9584 214.615 101.858 215.787 103.029L232.757 120L215.787 136.971C214.615 138.142 214.615 140.042 215.787 141.213C216.958 142.385 218.858 142.385 220.029 141.213L239.121 122.121ZM0.878693 117.879C-0.292877 119.05 -0.292877 120.95 0.878692 122.121L19.9706 141.213C21.1421 142.385 23.0416 142.385 24.2132 141.213C25.3848 140.042 25.3848 138.142 24.2132 136.971L7.24266 120L24.2132 103.029C25.3848 101.858 25.3848 99.9584 24.2132 98.7868C23.0416 97.6152 21.1422 97.6152 19.9706 98.7868L0.878693 117.879ZM237 117L3.00002 117L3.00001 123L237 123L237 117Z" fill="white"/>
<path d="M202.731 205.732C204.388 205.732 205.731 204.388 205.731 202.732L205.731 175.732C205.731 174.075 204.388 172.732 202.731 172.732C201.075 172.732 199.731 174.075 199.731 175.732L199.731 199.732L175.731 199.732C174.075 199.732 172.731 201.075 172.731 202.732C172.731 204.388 174.075 205.732 175.731 205.732L202.731 205.732ZM37.2685 34.2685C35.6116 34.2685 34.2685 35.6117 34.2685 37.2685L34.2685 64.2685C34.2685 65.9254 35.6116 67.2685 37.2685 67.2685C38.9253 67.2685 40.2685 65.9254 40.2685 64.2685L40.2685 40.2685L64.2685 40.2685C65.9253 40.2685 67.2685 38.9254 67.2685 37.2685C67.2685 35.6117 65.9253 34.2685 64.2685 34.2685L37.2685 34.2685ZM204.853 200.61L39.3898 35.1472L35.1472 39.3899L200.61 204.853L204.853 200.61Z" fill="white"/>
<path d="M34.2684 202.732C34.2684 204.388 35.6116 205.732 37.2684 205.732L64.2684 205.732C65.9253 205.732 67.2684 204.388 67.2684 202.732C67.2684 201.075 65.9253 199.732 64.2684 199.732L40.2684 199.732L40.2684 175.732C40.2684 174.075 38.9253 172.732 37.2684 172.732C35.6116 172.732 34.2684 174.075 34.2684 175.732L34.2684 202.732ZM205.731 37.2685C205.731 35.6117 204.388 34.2685 202.731 34.2685L175.731 34.2685C174.075 34.2685 172.731 35.6117 172.731 37.2685C172.731 38.9254 174.075 40.2685 175.731 40.2685L199.731 40.2685L199.731 64.2685C199.731 65.9254 201.075 67.2685 202.731 67.2685C204.388 67.2685 205.731 65.9254 205.731 64.2685L205.731 37.2685ZM39.3898 204.853L204.853 39.3899L200.61 35.1472L35.1471 200.61L39.3898 204.853Z" fill="white"/>
<path d="M184.121 122.121C185.293 120.95 185.293 119.05 184.121 117.879L165.029 98.7868C163.858 97.6152 161.958 97.6152 160.787 98.7868C159.615 99.9584 159.615 101.858 160.787 103.029L177.757 120L160.787 136.971C159.615 138.142 159.615 140.042 160.787 141.213C161.958 142.385 163.858 142.385 165.029 141.213L184.121 122.121ZM54.8787 117.879C53.7071 119.05 53.7071 120.95 54.8787 122.121L73.9706 141.213C75.1421 142.385 77.0416 142.385 78.2132 141.213C79.3848 140.042 79.3848 138.142 78.2132 136.971L61.2426 120L78.2132 103.029C79.3848 101.858 79.3848 99.9584 78.2132 98.7868C77.0416 97.6152 75.1421 97.6152 73.9706 98.7868L54.8787 117.879ZM182 117L57 117V123L182 123V117Z" fill="white"/>
<path d="M117.379 184.621C118.55 185.793 120.45 185.793 121.621 184.621L140.713 165.529C141.885 164.358 141.885 162.458 140.713 161.287C139.542 160.115 137.642 160.115 136.471 161.287L119.5 178.257L102.529 161.287C101.358 160.115 99.4584 160.115 98.2868 161.287C97.1152 162.458 97.1152 164.358 98.2868 165.529L117.379 184.621ZM121.621 55.3787C120.45 54.2071 118.55 54.2071 117.379 55.3787L98.2868 74.4706C97.1152 75.6421 97.1152 77.5416 98.2868 78.7132C99.4584 79.8848 101.358 79.8848 102.529 78.7132L119.5 61.7426L136.471 78.7132C137.642 79.8848 139.542 79.8848 140.713 78.7132C141.885 77.5416 141.885 75.6421 140.713 74.4706L121.621 55.3787ZM122.5 182.5L122.5 57.5L116.5 57.5L116.5 182.5L122.5 182.5Z" fill="white"/>
</g>
<defs>
<filter id="filter0_i_4_995" x="0" y="0" width="240" height="244" filterUnits="userSpaceOnUse" color-interpolation-filters="sRGB">
<feFlood flood-opacity="0" result="BackgroundImageFix"/>
<feBlend mode="normal" in="SourceGraphic" in2="BackgroundImageFix" result="shape"/>
<feColorMatrix in="SourceAlpha" type="matrix" values="0 0 0 0 0 0 0 0 0 0 0 0 0 0 0 0 0 0 127 0" result="hardAlpha"/>
<feOffset dy="4"/>
<feGaussianBlur stdDeviation="2"/>
<feComposite in2="hardAlpha" operator="arithmetic" k2="-1" k3="1"/>
<feColorMatrix type="matrix" values="0 0 0 0 0 0 0 0 0 0 0 0 0 0 0 0 0 0 0.25 0"/>
<feBlend mode="normal" in2="shape" result="effect1_innerShadow_4_995"/>
</filter>
</defs>
</svg>
